<svg id="Layer_1" data-name="Layer 1" xmlns="http://www.w3.org/2000/svg" viewBox="0 0 312.76 276.1"><defs><style>.cls-1{fill:#b69f8d;}</style></defs><title>The Flow Fest Logo</title><path class="cls-1" d="M652.8,456.82a156.53,156.53,0,0,0-55.9,13.45,156.21,156.21,0,0,0-38.16-39.75c-7.5-5.46-20.84-16.66-30.77-14.79-5.05,1-10.39,5.27-14.64,8.06a145.07,145.07,0,0,0-14.48,10.91A152.07,152.07,0,0,0,468.09,471a176.09,176.09,0,0,0-59.9-13.76c-1.73-.09-6-.2-7.16,1.65-24.55,39.72-30.16,88.86-13.54,132.71,14.15,37.33,43.25,67.28,79.24,84.14a167.45,167.45,0,0,0,67.73,15.3,15,15,0,0,0,3.08.44,3.71,3.71,0,0,0,.69.11c40-.29,78.63-14.6,107.46-42.69a149.83,149.83,0,0,0,45.06-106.16,154.62,154.62,0,0,0-23.43-80.95C664.86,457.83,656.89,456.62,652.8,456.82ZM538,427.44a137,137,0,0,1,47.22,49.88c0,.1,0,.19,0,.29,30.35,54.34,23,120.66-13.38,167-1,1.2-1.94,2.4-2.94,3.57l-.09.12a148.37,148.37,0,0,1-37,31.2c-46.69-30-70.68-84.07-66.42-137.42a150.25,150.25,0,0,1,24-69.26A145.69,145.69,0,0,1,538,427.44ZM397.15,540.23A147.71,147.71,0,0,1,418.06,466a133.11,133.11,0,0,1,45.52,13c-2.23,4.19-4.32,8.44-6.15,12.81a151.07,151.07,0,0,0-10.24,37.65c-.14,1-.27,1.9-.4,2.86-.07.62-.16,1.24-.23,1.86a153.83,153.83,0,0,0,6.91,68.56c11,32.49,33.19,60.22,61.72,78.9C447.46,671.91,396.52,609.28,397.15,540.23Zm166,138a148.57,148.57,0,0,0,40-46,150.67,150.67,0,0,0,18.1-50.36,156.69,156.69,0,0,0-6.85-78q-1.72-4.8-3.77-9.46c-1.22-2.77-3.78-6.19-4.38-9.11q-2.66-2.46.6-4.29,2.42-1.2,4.88-2.32,4.89-2.22,10-4.09a140.73,140.73,0,0,1,31.68-7.62A148.05,148.05,0,0,1,672,537.38C671.51,603.54,625.67,662.35,563.18,678.2Z" transform="translate(-377.99 -415.53)"/></svg>